#N canvas 188 97 446 373 10;
#X declare -stdpath hcs -stdpath ggee -stdpath maxlib -stdpath motex
;
#X obj 58 22 declare -stdpath hcs -stdpath ggee -stdpath maxlib -stdpath
motex;
#X obj 57 83 tgl 15 0 empty empty empty 17 7 0 10 -262144 -1 -1 0 1
;
#X obj 57 103 s SWITCH;
#N canvas 1 189 355 424 watchGPIO-7 0;
#X obj 42 168 ggee/shell;
#X obj 41 21 loadbang;
#X obj 41 42 del 1000;
#X msg 119 72 gpio mode 7 in \, gpio mode 7 up;
#X obj 41 85 del 1000;
#X obj 42 104 tgl 15 0 empty empty empty 17 7 0 10 -262144 -1 -1 1
1;
#X obj 42 124 metro 100;
#X msg 42 145 gpio read 7;
#X obj 42 191 == 0;
#X obj 42 344 tgl 15 0 empty empty empty 17 7 0 10 -262144 -1 -1 0
1;
#X obj 42 212 change;
#X obj 42 233 sel 1 0, f 19;
#X obj 42 276 del 500;
#X msg 53 256 stop;
#X obj 98 278 del 500;
#X msg 90 256 stop;
#X msg 42 297 1;
#X msg 98 299 0;
#X obj 42 321 change;
#X obj 42 364 outlet;
#X connect 0 0 8 0;
#X connect 1 0 2 0;
#X connect 2 0 3 0;
#X connect 2 0 4 0;
#X connect 3 0 0 0;
#X connect 4 0 5 0;
#X connect 5 0 6 0;
#X connect 6 0 7 0;
#X connect 7 0 0 0;
#X connect 8 0 10 0;
#X connect 9 0 19 0;
#X connect 10 0 11 0;
#X connect 11 0 12 0;
#X connect 11 0 15 0;
#X connect 11 1 13 0;
#X connect 11 1 14 0;
#X connect 12 0 16 0;
#X connect 13 0 12 0;
#X connect 14 0 17 0;
#X connect 15 0 14 0;
#X connect 16 0 18 0;
#X connect 17 0 18 0;
#X connect 18 0 9 0;
#X restore 57 61 pd watchGPIO-7;
#N canvas 1 81 434 422 chooseRandomFile 0;
#X obj 92 23 inlet;
#X obj 92 68 list length;
#X floatatom 48 91 5 0 0 0 - - -, f 5;
#X obj 48 111 bng 15 250 50 0 empty empty empty 17 7 0 10 -262144 -1
-1;
#X obj 92 90 sel 0;
#X obj 119 115 t b f;
#X obj 146 137 change;
#X floatatom 119 249 5 0 0 0 - - -, f 5;
#X msg 171 115 set 0;
#X msg 134 224 clear;
#X obj 88 271 bng 15 250 50 0 empty empty empty 17 7 0 10 -262144 -1
-1;
#X floatatom 228 210 5 0 0 0 - - -, f 5;
#X msg 131 181 1;
#X obj 131 161 t b f;
#X obj 119 204 shuffle 1 2 0.25;
#X obj 119 311 list split;
#X obj 92 45 t a a, f 41;
#X obj 119 290 list;
#X obj 119 269 t b f;
#X obj 147 333 list split 1;
#X obj 176 289 - 1;
#X msg 272 287 0;
#X obj 147 354 outlet;
#X connect 0 0 16 0;
#X connect 1 0 2 0;
#X connect 1 0 4 0;
#X connect 2 0 3 0;
#X connect 4 1 5 0;
#X connect 5 0 14 0;
#X connect 5 1 6 0;
#X connect 6 0 11 0;
#X connect 6 0 13 0;
#X connect 7 0 10 0;
#X connect 7 0 18 0;
#X connect 8 0 6 0;
#X connect 12 0 14 0;
#X connect 13 0 12 0;
#X connect 13 1 14 1;
#X connect 14 0 7 0;
#X connect 15 1 19 0;
#X connect 16 0 1 0;
#X connect 16 1 17 1;
#X connect 17 0 15 0;
#X connect 18 0 17 0;
#X connect 18 1 20 0;
#X connect 19 0 22 0;
#X connect 20 0 15 1;
#X restore 58 226 pd chooseRandomFile;
#N canvas 1 162 334 396 getWavsOnUsbDisk 0;
#X obj 78 213 folder_list;
#X obj 88 116 metro 1000;
#X obj 57 142 t b b b, f 8;
#X obj 78 234 list prepend;
#X obj 78 254 list;
#X msg 155 167 list;
#X obj 57 273 list;
#X obj 57 162 del 500;
#X obj 88 83 tgl 15 0 empty empty empty 17 7 0 10 -262144 -1 -1 0 1
;
#X msg 78 189 symbol /media/usbhd/*.wav;
#X obj 57 58 inlet;
#X obj 57 294 outlet;
#X connect 0 0 3 0;
#X connect 2 0 7 0;
#X connect 2 1 9 0;
#X connect 2 2 5 0;
#X connect 3 0 4 0;
#X connect 4 0 3 1;
#X connect 4 0 6 1;
#X connect 5 0 4 0;
#X connect 6 0 11 0;
#X connect 7 0 6 0;
#X connect 8 0 1 0;
#X connect 9 0 0 0;
#X connect 10 0 2 0;
#X restore 58 203 pd getWavsOnUsbDisk;
#X symbolatom 58 256 0 0 0 0 - - -;
#X obj 58 179 r PLAYWAV;
#N canvas 594 204 548 410 play 1;
#X obj 70 250 readsf~ 1 100000;
#X obj 70 93 t b s;
#X obj 70 180 del 200;
#X msg 70 201 1;
#X symbolatom 164 124 30 0 0 0 - - -, f 30;
#X obj 70 38 inlet;
#X obj 70 331 *~;
#X obj 60 367 dac~;
#X obj 220 284 line~;
#X obj 121 179 symbol;
#X obj 70 131 del 20;
#X msg 121 200 0 \, open \$1;
#X msg 220 201 0 20;
#X msg 32 132 stop;
#X obj 436 47 inlet SWITCH;
#X obj 436 68 sel 0 1;
#X msg 455 89 stop;
#X msg 436 159 0;
#X obj 406 256 change;
#X msg 406 234 1;
#X obj 406 276 outlet;
#X obj 210 309 *~;
#X msg 181 250 1 20;
#X obj 436 138 del 3000;
#X obj 436 110 del 1000;
#X msg 282 228 1 500;
#X msg 328 229 0 3000;
#X msg 163 283 0;
#X connect 0 0 6 0;
#X connect 0 1 27 0;
#X connect 1 0 10 0;
#X connect 1 0 12 0;
#X connect 1 0 13 0;
#X connect 1 0 19 0;
#X connect 1 1 4 0;
#X connect 1 1 9 1;
#X connect 2 0 3 0;
#X connect 2 0 22 0;
#X connect 3 0 0 0;
#X connect 5 0 1 0;
#X connect 6 0 7 0;
#X connect 6 0 7 1;
#X connect 8 0 21 0;
#X connect 8 0 21 1;
#X connect 9 0 11 0;
#X connect 10 0 2 0;
#X connect 10 0 9 0;
#X connect 11 0 0 0;
#X connect 12 0 8 0;
#X connect 13 0 2 0;
#X connect 14 0 15 0;
#X connect 15 0 24 0;
#X connect 15 1 16 0;
#X connect 15 1 25 0;
#X connect 16 0 23 0;
#X connect 16 0 24 0;
#X connect 17 0 0 0;
#X connect 17 0 18 0;
#X connect 18 0 20 0;
#X connect 19 0 18 0;
#X connect 21 0 6 1;
#X connect 22 0 8 0;
#X connect 23 0 17 0;
#X connect 24 0 26 0;
#X connect 24 0 23 0;
#X connect 25 0 8 0;
#X connect 26 0 8 0;
#X connect 27 0 18 0;
#X restore 58 296 pd play;
#X obj 123 179 bng 15 250 50 0 empty empty empty 17 7 0 10 -262144
-1 -1;
#X obj 156 61 r SWITCH;
#X obj 156 122 spigot 1;
#X obj 201 81 r PLAYING;
#X obj 201 102 == 0;
#X obj 58 316 s PLAYING;
#X obj 97 276 r SWITCH;
#X obj 39 316 tgl 15 0 empty empty empty 17 7 0 10 -262144 -1 -1 0
1;
#X obj 156 146 s PLAYWAV;
#X text 219 343 Antoine Rousseau - metalu.net 2018;
#X obj 330 70 loadbang;
#X msg 330 91 \; pd dsp 1;
#X connect 1 0 2 0;
#X connect 3 0 1 0;
#X connect 4 0 6 0;
#X connect 5 0 4 0;
#X connect 6 0 8 0;
#X connect 7 0 5 0;
#X connect 8 0 14 0;
#X connect 8 0 16 0;
#X connect 9 0 5 0;
#X connect 10 0 11 0;
#X connect 11 0 17 0;
#X connect 12 0 13 0;
#X connect 13 0 11 1;
#X connect 15 0 8 1;
#X connect 19 0 20 0;
